<mxfile host="app.diagrams.net" agent="Mozilla/5.0 (Windows NT 10.0; Win64; x64) AppleWebKit/537.36 (KHTML, like Gecko) Chrome/129.0.0.0 Safari/537.36 Edg/129.0.0.0" version="26.2.14">
  <diagram name="第 1 页" id="KmCPALE_qiQsv42cVoQL">
    <mxGraphModel dx="1418" dy="762" grid="1" gridSize="10" guides="1" tooltips="1" connect="1" arrows="1" fold="1" page="1" pageScale="1" pageWidth="827" pageHeight="1169" math="0" shadow="0">
      <root>
        <mxCell id="0" />
        <mxCell id="1" parent="0" />
        <mxCell id="2" value="BankAccount" style="swimlane;fontStyle=1;align=center;verticalAlign=top;childLayout=stackLayout;horizontal=1;startSize=36.8;horizontalStack=0;resizeParent=1;resizeParentMax=0;resizeLast=0;collapsible=0;marginBottom=0;" parent="1" vertex="1">
          <mxGeometry x="8" y="8" width="227" height="192" as="geometry" />
        </mxCell>
        <mxCell id="3" value="+String owner" style="text;strokeColor=none;fillColor=none;align=left;verticalAlign=top;spacingLeft=4;spacingRight=4;overflow=hidden;rotatable=0;points=[[0,0.5],[1,0.5]];portConstraint=eastwest;" parent="2" vertex="1">
          <mxGeometry y="37" width="227" height="37" as="geometry" />
        </mxCell>
        <mxCell id="4" value="+BigDecimal balance" style="text;strokeColor=none;fillColor=none;align=left;verticalAlign=top;spacingLeft=4;spacingRight=4;overflow=hidden;rotatable=0;points=[[0,0.5],[1,0.5]];portConstraint=eastwest;" parent="2" vertex="1">
          <mxGeometry y="74" width="227" height="37" as="geometry" />
        </mxCell>
        <mxCell id="5" style="line;strokeWidth=1;fillColor=none;align=left;verticalAlign=middle;spacingTop=-1;spacingLeft=3;spacingRight=3;rotatable=0;labelPosition=right;points=[];portConstraint=eastwest;strokeColor=inherit;" parent="2" vertex="1">
          <mxGeometry y="110" width="227" height="8" as="geometry" />
        </mxCell>
        <mxCell id="6" value="+deposit(amount)" style="text;strokeColor=none;fillColor=none;align=left;verticalAlign=top;spacingLeft=4;spacingRight=4;overflow=hidden;rotatable=0;points=[[0,0.5],[1,0.5]];portConstraint=eastwest;" parent="2" vertex="1">
          <mxGeometry y="118" width="227" height="37" as="geometry" />
        </mxCell>
        <mxCell id="7" value="+withdrawal(amount)" style="text;strokeColor=none;fillColor=none;align=left;verticalAlign=top;spacingLeft=4;spacingRight=4;overflow=hidden;rotatable=0;points=[[0,0.5],[1,0.5]];portConstraint=eastwest;" parent="2" vertex="1">
          <mxGeometry y="155" width="227" height="37" as="geometry" />
        </mxCell>
        <mxCell id="SZjp6mkDGURUv7xX__tE-7" value="A" style="whiteSpace=wrap;strokeWidth=2;" vertex="1" parent="1">
          <mxGeometry x="79" y="220" width="69" height="54" as="geometry" />
        </mxCell>
        <mxCell id="SZjp6mkDGURUv7xX__tE-8" value="B" style="whiteSpace=wrap;strokeWidth=2;" vertex="1" parent="1">
          <mxGeometry x="20" y="324" width="69" height="54" as="geometry" />
        </mxCell>
        <mxCell id="SZjp6mkDGURUv7xX__tE-9" value="C" style="whiteSpace=wrap;strokeWidth=2;" vertex="1" parent="1">
          <mxGeometry x="139" y="324" width="70" height="54" as="geometry" />
        </mxCell>
        <mxCell id="SZjp6mkDGURUv7xX__tE-10" value="D" style="whiteSpace=wrap;strokeWidth=2;" vertex="1" parent="1">
          <mxGeometry x="79" y="428" width="70" height="54" as="geometry" />
        </mxCell>
        <mxCell id="SZjp6mkDGURUv7xX__tE-11" value="" style="curved=1;startArrow=none;endArrow=block;exitX=0.06;exitY=1;entryX=0.5;entryY=0;rounded=0;" edge="1" parent="1" source="SZjp6mkDGURUv7xX__tE-7" target="SZjp6mkDGURUv7xX__tE-8">
          <mxGeometry relative="1" as="geometry">
            <Array as="points">
              <mxPoint x="55" y="299" />
            </Array>
          </mxGeometry>
        </mxCell>
        <mxCell id="SZjp6mkDGURUv7xX__tE-12" value="" style="curved=1;startArrow=none;endArrow=block;exitX=0.96;exitY=1;entryX=0.5;entryY=0;rounded=0;" edge="1" parent="1" source="SZjp6mkDGURUv7xX__tE-7" target="SZjp6mkDGURUv7xX__tE-9">
          <mxGeometry relative="1" as="geometry">
            <Array as="points">
              <mxPoint x="174" y="299" />
            </Array>
          </mxGeometry>
        </mxCell>
        <mxCell id="SZjp6mkDGURUv7xX__tE-13" value="" style="curved=1;startArrow=none;endArrow=block;exitX=0.5;exitY=1;entryX=0.06;entryY=0;rounded=0;" edge="1" parent="1" source="SZjp6mkDGURUv7xX__tE-8" target="SZjp6mkDGURUv7xX__tE-10">
          <mxGeometry relative="1" as="geometry">
            <Array as="points">
              <mxPoint x="55" y="403" />
            </Array>
          </mxGeometry>
        </mxCell>
        <mxCell id="SZjp6mkDGURUv7xX__tE-14" value="" style="curved=1;startArrow=none;endArrow=block;exitX=0.5;exitY=1;entryX=0.95;entryY=0;rounded=0;" edge="1" parent="1" source="SZjp6mkDGURUv7xX__tE-9" target="SZjp6mkDGURUv7xX__tE-10">
          <mxGeometry relative="1" as="geometry">
            <Array as="points">
              <mxPoint x="174" y="403" />
            </Array>
          </mxGeometry>
        </mxCell>
        <mxCell id="SZjp6mkDGURUv7xX__tE-34" value="临床队列" style="whiteSpace=wrap;strokeWidth=2;" vertex="1" parent="1">
          <mxGeometry x="422" y="500" width="124" height="54" as="geometry" />
        </mxCell>
        <mxCell id="SZjp6mkDGURUv7xX__tE-35" value="样本采集" style="whiteSpace=wrap;strokeWidth=2;" vertex="1" parent="1">
          <mxGeometry x="422" y="604" width="124" height="54" as="geometry" />
        </mxCell>
        <mxCell id="SZjp6mkDGURUv7xX__tE-36" value="菌群分析" style="whiteSpace=wrap;strokeWidth=2;" vertex="1" parent="1">
          <mxGeometry x="422" y="708" width="124" height="54" as="geometry" />
        </mxCell>
        <mxCell id="SZjp6mkDGURUv7xX__tE-37" value="16S rRNA测序" style="whiteSpace=wrap;strokeWidth=2;" vertex="1" parent="1">
          <mxGeometry x="216" y="812" width="156" height="54" as="geometry" />
        </mxCell>
        <mxCell id="SZjp6mkDGURUv7xX__tE-38" value="菌群α多样性" style="whiteSpace=wrap;strokeWidth=2;" vertex="1" parent="1">
          <mxGeometry x="20" y="916" width="149" height="54" as="geometry" />
        </mxCell>
        <mxCell id="SZjp6mkDGURUv7xX__tE-39" value="菌群β多样性" style="whiteSpace=wrap;strokeWidth=2;" vertex="1" parent="1">
          <mxGeometry x="219" y="916" width="149" height="54" as="geometry" />
        </mxCell>
        <mxCell id="SZjp6mkDGURUv7xX__tE-40" value="差异菌属" style="whiteSpace=wrap;strokeWidth=2;" vertex="1" parent="1">
          <mxGeometry x="418" y="916" width="124" height="54" as="geometry" />
        </mxCell>
        <mxCell id="SZjp6mkDGURUv7xX__tE-41" value="宏基因组测序" style="whiteSpace=wrap;strokeWidth=2;" vertex="1" parent="1">
          <mxGeometry x="596" y="812" width="156" height="54" as="geometry" />
        </mxCell>
        <mxCell id="SZjp6mkDGURUv7xX__tE-42" value="KEGG功能注释" style="whiteSpace=wrap;strokeWidth=2;" vertex="1" parent="1">
          <mxGeometry x="592" y="916" width="163" height="54" as="geometry" />
        </mxCell>
        <mxCell id="SZjp6mkDGURUv7xX__tE-43" value="胆汁酸代谢基因筛选" style="whiteSpace=wrap;strokeWidth=2;" vertex="1" parent="1">
          <mxGeometry x="572" y="1020" width="204" height="54" as="geometry" />
        </mxCell>
        <mxCell id="SZjp6mkDGURUv7xX__tE-44" value="" style="curved=1;startArrow=none;endArrow=block;exitX=0.5;exitY=1;entryX=0.5;entryY=0;rounded=0;" edge="1" parent="1" source="SZjp6mkDGURUv7xX__tE-34" target="SZjp6mkDGURUv7xX__tE-35">
          <mxGeometry relative="1" as="geometry">
            <Array as="points" />
          </mxGeometry>
        </mxCell>
        <mxCell id="SZjp6mkDGURUv7xX__tE-45" value="" style="curved=1;startArrow=none;endArrow=block;exitX=0.5;exitY=1;entryX=0.5;entryY=0;rounded=0;" edge="1" parent="1" source="SZjp6mkDGURUv7xX__tE-35" target="SZjp6mkDGURUv7xX__tE-36">
          <mxGeometry relative="1" as="geometry">
            <Array as="points" />
          </mxGeometry>
        </mxCell>
        <mxCell id="SZjp6mkDGURUv7xX__tE-46" value="" style="curved=1;startArrow=none;endArrow=block;exitX=0;exitY=0.81;entryX=0.5;entryY=0;rounded=0;" edge="1" parent="1" source="SZjp6mkDGURUv7xX__tE-36" target="SZjp6mkDGURUv7xX__tE-37">
          <mxGeometry relative="1" as="geometry">
            <Array as="points">
              <mxPoint x="294" y="787" />
            </Array>
          </mxGeometry>
        </mxCell>
        <mxCell id="SZjp6mkDGURUv7xX__tE-47" value="" style="curved=1;startArrow=none;endArrow=block;exitX=0;exitY=0.88;entryX=0.5;entryY=0;rounded=0;" edge="1" parent="1" source="SZjp6mkDGURUv7xX__tE-37" target="SZjp6mkDGURUv7xX__tE-38">
          <mxGeometry relative="1" as="geometry">
            <Array as="points">
              <mxPoint x="95" y="891" />
            </Array>
          </mxGeometry>
        </mxCell>
        <mxCell id="SZjp6mkDGURUv7xX__tE-48" value="" style="curved=1;startArrow=none;endArrow=block;exitX=0.5;exitY=1;entryX=0.5;entryY=0;rounded=0;" edge="1" parent="1" source="SZjp6mkDGURUv7xX__tE-37" target="SZjp6mkDGURUv7xX__tE-39">
          <mxGeometry relative="1" as="geometry">
            <Array as="points" />
          </mxGeometry>
        </mxCell>
        <mxCell id="SZjp6mkDGURUv7xX__tE-49" value="" style="curved=1;startArrow=none;endArrow=block;exitX=1;exitY=0.9;entryX=0.5;entryY=0;rounded=0;" edge="1" parent="1" source="SZjp6mkDGURUv7xX__tE-37" target="SZjp6mkDGURUv7xX__tE-40">
          <mxGeometry relative="1" as="geometry">
            <Array as="points">
              <mxPoint x="480" y="891" />
            </Array>
          </mxGeometry>
        </mxCell>
        <mxCell id="SZjp6mkDGURUv7xX__tE-50" value="" style="curved=1;startArrow=none;endArrow=block;exitX=1;exitY=0.81;entryX=0.5;entryY=0;rounded=0;" edge="1" parent="1" source="SZjp6mkDGURUv7xX__tE-36" target="SZjp6mkDGURUv7xX__tE-41">
          <mxGeometry relative="1" as="geometry">
            <Array as="points">
              <mxPoint x="674" y="787" />
            </Array>
          </mxGeometry>
        </mxCell>
        <mxCell id="SZjp6mkDGURUv7xX__tE-51" value="" style="curved=1;startArrow=none;endArrow=block;exitX=0.5;exitY=1;entryX=0.5;entryY=0;rounded=0;" edge="1" parent="1" source="SZjp6mkDGURUv7xX__tE-41" target="SZjp6mkDGURUv7xX__tE-42">
          <mxGeometry relative="1" as="geometry">
            <Array as="points" />
          </mxGeometry>
        </mxCell>
        <mxCell id="SZjp6mkDGURUv7xX__tE-52" value="" style="curved=1;startArrow=none;endArrow=block;exitX=0.5;exitY=1;entryX=0.5;entryY=0;rounded=0;" edge="1" parent="1" source="SZjp6mkDGURUv7xX__tE-42" target="SZjp6mkDGURUv7xX__tE-43">
          <mxGeometry relative="1" as="geometry">
            <Array as="points" />
          </mxGeometry>
        </mxCell>
        <mxCell id="SZjp6mkDGURUv7xX__tE-53" value="步骤1: 菌群样本采集与预处理" style="whiteSpace=wrap;strokeWidth=2;verticalAlign=top;" vertex="1" parent="1">
          <mxGeometry x="357" y="1100" width="640" height="540" as="geometry" />
        </mxCell>
        <mxCell id="SZjp6mkDGURUv7xX__tE-54" value="临床队列" style="whiteSpace=wrap;strokeWidth=2;" vertex="1" parent="SZjp6mkDGURUv7xX__tE-53">
          <mxGeometry x="266" y="46" width="124" height="54" as="geometry" />
        </mxCell>
        <mxCell id="SZjp6mkDGURUv7xX__tE-55" value="样本采集" style="whiteSpace=wrap;strokeWidth=2;" vertex="1" parent="SZjp6mkDGURUv7xX__tE-53">
          <mxGeometry x="266" y="175" width="124" height="54" as="geometry" />
        </mxCell>
        <mxCell id="SZjp6mkDGURUv7xX__tE-56" value="菌群分析" style="whiteSpace=wrap;strokeWidth=2;" vertex="1" parent="SZjp6mkDGURUv7xX__tE-53">
          <mxGeometry x="266" y="304" width="124" height="54" as="geometry" />
        </mxCell>
        <mxCell id="SZjp6mkDGURUv7xX__tE-57" value="16S rRNA测序（菌群α/β多样性、差异菌属）" style="whiteSpace=wrap;strokeWidth=2;" vertex="1" parent="SZjp6mkDGURUv7xX__tE-53">
          <mxGeometry x="43" y="433" width="260" height="78" as="geometry" />
        </mxCell>
        <mxCell id="SZjp6mkDGURUv7xX__tE-58" value="宏基因组测序（KEGG功能注释→胆汁酸代谢基因筛选）" style="whiteSpace=wrap;strokeWidth=2;" vertex="1" parent="SZjp6mkDGURUv7xX__tE-53">
          <mxGeometry x="353" y="433" width="260" height="78" as="geometry" />
        </mxCell>
        <mxCell id="SZjp6mkDGURUv7xX__tE-59" value="" style="curved=1;startArrow=none;endArrow=block;exitX=0.5;exitY=0.99;entryX=0.5;entryY=-0.01;rounded=0;" edge="1" parent="SZjp6mkDGURUv7xX__tE-53" source="SZjp6mkDGURUv7xX__tE-54" target="SZjp6mkDGURUv7xX__tE-55">
          <mxGeometry relative="1" as="geometry">
            <Array as="points" />
          </mxGeometry>
        </mxCell>
        <mxCell id="SZjp6mkDGURUv7xX__tE-60" value="" style="curved=1;startArrow=none;endArrow=block;exitX=0.5;exitY=0.99;entryX=0.5;entryY=-0.01;rounded=0;" edge="1" parent="SZjp6mkDGURUv7xX__tE-53" source="SZjp6mkDGURUv7xX__tE-55" target="SZjp6mkDGURUv7xX__tE-56">
          <mxGeometry relative="1" as="geometry">
            <Array as="points" />
          </mxGeometry>
        </mxCell>
        <mxCell id="SZjp6mkDGURUv7xX__tE-61" value="" style="curved=1;startArrow=none;endArrow=block;exitX=0;exitY=0.97;entryX=0.5;entryY=-0.01;rounded=0;" edge="1" parent="SZjp6mkDGURUv7xX__tE-53" source="SZjp6mkDGURUv7xX__tE-56" target="SZjp6mkDGURUv7xX__tE-57">
          <mxGeometry relative="1" as="geometry">
            <Array as="points">
              <mxPoint x="173" y="395" />
            </Array>
          </mxGeometry>
        </mxCell>
        <mxCell id="SZjp6mkDGURUv7xX__tE-62" value="" style="curved=1;startArrow=none;endArrow=block;exitX=1;exitY=0.97;entryX=0.5;entryY=-0.01;rounded=0;" edge="1" parent="SZjp6mkDGURUv7xX__tE-53" source="SZjp6mkDGURUv7xX__tE-56" target="SZjp6mkDGURUv7xX__tE-58">
          <mxGeometry relative="1" as="geometry">
            <Array as="points">
              <mxPoint x="483" y="395" />
            </Array>
          </mxGeometry>
        </mxCell>
        <mxCell id="SZjp6mkDGURUv7xX__tE-63" value="步骤2: 人源菌群-C57BL/6小鼠模型" style="whiteSpace=wrap;strokeWidth=2;verticalAlign=top;" vertex="1" parent="1">
          <mxGeometry x="20" y="1690" width="1314" height="459" as="geometry" />
        </mxCell>
        <mxCell id="SZjp6mkDGURUv7xX__tE-64" value="模型构建" style="whiteSpace=wrap;strokeWidth=2;" vertex="1" parent="SZjp6mkDGURUv7xX__tE-63">
          <mxGeometry x="568" y="46" width="124" height="54" as="geometry" />
        </mxCell>
        <mxCell id="SZjp6mkDGURUv7xX__tE-65" value="实验组：灌胃患者菌群悬液(n=20)" style="whiteSpace=wrap;strokeWidth=2;" vertex="1" parent="SZjp6mkDGURUv7xX__tE-63">
          <mxGeometry x="43" y="175" width="260" height="78" as="geometry" />
        </mxCell>
        <mxCell id="SZjp6mkDGURUv7xX__tE-66" value="对照组：灌胃健康菌群悬液(n=20)" style="whiteSpace=wrap;strokeWidth=2;" vertex="1" parent="SZjp6mkDGURUv7xX__tE-63">
          <mxGeometry x="353" y="175" width="260" height="78" as="geometry" />
        </mxCell>
        <mxCell id="SZjp6mkDGURUv7xX__tE-67" value="空白组：PBS对照(n=10)" style="whiteSpace=wrap;strokeWidth=2;" vertex="1" parent="SZjp6mkDGURUv7xX__tE-63">
          <mxGeometry x="663" y="187" width="227" height="54" as="geometry" />
        </mxCell>
        <mxCell id="SZjp6mkDGURUv7xX__tE-68" value="定植验证" style="whiteSpace=wrap;strokeWidth=2;" vertex="1" parent="SZjp6mkDGURUv7xX__tE-63">
          <mxGeometry x="940" y="187" width="124" height="54" as="geometry" />
        </mxCell>
        <mxCell id="SZjp6mkDGURUv7xX__tE-69" value="动态监测：qPCR检测供体标志基因(7α-脱羟酶)、16S时序分析" style="whiteSpace=wrap;strokeWidth=2;" vertex="1" parent="SZjp6mkDGURUv7xX__tE-63">
          <mxGeometry x="458" y="328" width="260" height="102" as="geometry" />
        </mxCell>
        <mxCell id="SZjp6mkDGURUv7xX__tE-70" value="功能验证：宏基因组(胆汁酸代谢基因丰度)+LC-MS/MS(DCA/LCA定量)" style="whiteSpace=wrap;strokeWidth=2;" vertex="1" parent="SZjp6mkDGURUv7xX__tE-63">
          <mxGeometry x="1027" y="328" width="260" height="102" as="geometry" />
        </mxCell>
        <mxCell id="SZjp6mkDGURUv7xX__tE-71" value="" style="curved=1;startArrow=none;endArrow=block;exitX=0;exitY=0.65;entryX=0.5;entryY=-0.01;rounded=0;" edge="1" parent="SZjp6mkDGURUv7xX__tE-63" source="SZjp6mkDGURUv7xX__tE-64" target="SZjp6mkDGURUv7xX__tE-65">
          <mxGeometry relative="1" as="geometry">
            <Array as="points">
              <mxPoint x="173" y="137" />
            </Array>
          </mxGeometry>
        </mxCell>
        <mxCell id="SZjp6mkDGURUv7xX__tE-72" value="" style="curved=1;startArrow=none;endArrow=block;exitX=0;exitY=0.99;entryX=0.5;entryY=-0.01;rounded=0;" edge="1" parent="SZjp6mkDGURUv7xX__tE-63" source="SZjp6mkDGURUv7xX__tE-64" target="SZjp6mkDGURUv7xX__tE-66">
          <mxGeometry relative="1" as="geometry">
            <Array as="points">
              <mxPoint x="483" y="137" />
            </Array>
          </mxGeometry>
        </mxCell>
        <mxCell id="SZjp6mkDGURUv7xX__tE-73" value="" style="curved=1;startArrow=none;endArrow=block;exitX=0.99;exitY=0.99;entryX=0.5;entryY=-0.01;rounded=0;" edge="1" parent="SZjp6mkDGURUv7xX__tE-63" source="SZjp6mkDGURUv7xX__tE-64" target="SZjp6mkDGURUv7xX__tE-67">
          <mxGeometry relative="1" as="geometry">
            <Array as="points">
              <mxPoint x="777" y="137" />
            </Array>
          </mxGeometry>
        </mxCell>
        <mxCell id="SZjp6mkDGURUv7xX__tE-74" value="" style="curved=1;startArrow=none;endArrow=block;exitX=1;exitY=0.69;entryX=0.5;entryY=-0.01;rounded=0;" edge="1" parent="SZjp6mkDGURUv7xX__tE-63" source="SZjp6mkDGURUv7xX__tE-64" target="SZjp6mkDGURUv7xX__tE-68">
          <mxGeometry relative="1" as="geometry">
            <Array as="points">
              <mxPoint x="1002" y="137" />
            </Array>
          </mxGeometry>
        </mxCell>
        <mxCell id="SZjp6mkDGURUv7xX__tE-75" value="" style="curved=1;startArrow=none;endArrow=block;exitX=0;exitY=0.7;entryX=0.5;entryY=0;rounded=0;" edge="1" parent="SZjp6mkDGURUv7xX__tE-63" source="SZjp6mkDGURUv7xX__tE-68" target="SZjp6mkDGURUv7xX__tE-69">
          <mxGeometry relative="1" as="geometry">
            <Array as="points">
              <mxPoint x="588" y="290" />
            </Array>
          </mxGeometry>
        </mxCell>
        <mxCell id="SZjp6mkDGURUv7xX__tE-76" value="" style="curved=1;startArrow=none;endArrow=block;exitX=0.94;exitY=0.99;entryX=0.5;entryY=0;rounded=0;" edge="1" parent="SZjp6mkDGURUv7xX__tE-63" source="SZjp6mkDGURUv7xX__tE-68" target="SZjp6mkDGURUv7xX__tE-70">
          <mxGeometry relative="1" as="geometry">
            <Array as="points">
              <mxPoint x="1157" y="290" />
            </Array>
          </mxGeometry>
        </mxCell>
        <mxCell id="SZjp6mkDGURUv7xX__tE-77" value="步骤3: 宿主代谢与病理表型分析" style="whiteSpace=wrap;strokeWidth=2;verticalAlign=top;" vertex="1" parent="1">
          <mxGeometry x="133" y="2199" width="1089" height="483" as="geometry" />
        </mxCell>
        <mxCell id="SZjp6mkDGURUv7xX__tE-78" value="代谢物检测" style="whiteSpace=wrap;strokeWidth=2;" vertex="1" parent="SZjp6mkDGURUv7xX__tE-77">
          <mxGeometry x="292" y="46" width="140" height="54" as="geometry" />
        </mxCell>
        <mxCell id="SZjp6mkDGURUv7xX__tE-79" value="胆汁分析：HPLC(CSI计算)+LC-MS/MS(DCA/CA比值)" style="whiteSpace=wrap;strokeWidth=2;" vertex="1" parent="SZjp6mkDGURUv7xX__tE-77">
          <mxGeometry x="43" y="175" width="260" height="102" as="geometry" />
        </mxCell>
        <mxCell id="SZjp6mkDGURUv7xX__tE-80" value="血清/肝脏：UPLC-QTOF-MS(脂质/SCFAs)+qRT-PCR(HMGCR/CYP7A1/ABCG5/G8)" style="whiteSpace=wrap;strokeWidth=2;" vertex="1" parent="SZjp6mkDGURUv7xX__tE-77">
          <mxGeometry x="353" y="175" width="297" height="102" as="geometry" />
        </mxCell>
        <mxCell id="SZjp6mkDGURUv7xX__tE-81" value="病理评估" style="whiteSpace=wrap;strokeWidth=2;" vertex="1" parent="SZjp6mkDGURUv7xX__tE-77">
          <mxGeometry x="700" y="199" width="124" height="54" as="geometry" />
        </mxCell>
        <mxCell id="SZjp6mkDGURUv7xX__tE-82" value="胆囊结石：发生率统计+偏振光显微镜(CMC)" style="whiteSpace=wrap;strokeWidth=2;" vertex="1" parent="SZjp6mkDGURUv7xX__tE-77">
          <mxGeometry x="182" y="364" width="260" height="78" as="geometry" />
        </mxCell>
        <mxCell id="SZjp6mkDGURUv7xX__tE-83" value="炎症损伤：HE染色(中性粒细胞评分)+MUC5AC免疫组化" style="whiteSpace=wrap;strokeWidth=2;" vertex="1" parent="SZjp6mkDGURUv7xX__tE-77">
          <mxGeometry x="492" y="352" width="260" height="102" as="geometry" />
        </mxCell>
        <mxCell id="SZjp6mkDGURUv7xX__tE-84" value="系统指标：ELISA(LPS/IL-6/TNF-α)+肠道屏障免疫荧光(ZO-1/Occludin)" style="whiteSpace=wrap;strokeWidth=2;" vertex="1" parent="SZjp6mkDGURUv7xX__tE-77">
          <mxGeometry x="802" y="352" width="260" height="102" as="geometry" />
        </mxCell>
        <mxCell id="SZjp6mkDGURUv7xX__tE-85" value="" style="curved=1;startArrow=none;endArrow=block;exitX=0;exitY=0.93;entryX=0.5;entryY=0;rounded=0;" edge="1" parent="SZjp6mkDGURUv7xX__tE-77" source="SZjp6mkDGURUv7xX__tE-78" target="SZjp6mkDGURUv7xX__tE-79">
          <mxGeometry relative="1" as="geometry">
            <Array as="points">
              <mxPoint x="173" y="137" />
            </Array>
          </mxGeometry>
        </mxCell>
        <mxCell id="SZjp6mkDGURUv7xX__tE-86" value="" style="curved=1;startArrow=none;endArrow=block;exitX=0.92;exitY=0.99;entryX=0.5;entryY=0;rounded=0;" edge="1" parent="SZjp6mkDGURUv7xX__tE-77" source="SZjp6mkDGURUv7xX__tE-78" target="SZjp6mkDGURUv7xX__tE-80">
          <mxGeometry relative="1" as="geometry">
            <Array as="points">
              <mxPoint x="501" y="137" />
            </Array>
          </mxGeometry>
        </mxCell>
        <mxCell id="SZjp6mkDGURUv7xX__tE-87" value="" style="curved=1;startArrow=none;endArrow=block;exitX=1;exitY=0.7;entryX=0.5;entryY=-0.01;rounded=0;" edge="1" parent="SZjp6mkDGURUv7xX__tE-77" source="SZjp6mkDGURUv7xX__tE-78" target="SZjp6mkDGURUv7xX__tE-81">
          <mxGeometry relative="1" as="geometry">
            <Array as="points">
              <mxPoint x="762" y="137" />
            </Array>
          </mxGeometry>
        </mxCell>
        <mxCell id="SZjp6mkDGURUv7xX__tE-88" value="" style="curved=1;startArrow=none;endArrow=block;exitX=0;exitY=0.72;entryX=0.5;entryY=-0.01;rounded=0;" edge="1" parent="SZjp6mkDGURUv7xX__tE-77" source="SZjp6mkDGURUv7xX__tE-81" target="SZjp6mkDGURUv7xX__tE-82">
          <mxGeometry relative="1" as="geometry">
            <Array as="points">
              <mxPoint x="312" y="314" />
            </Array>
          </mxGeometry>
        </mxCell>
        <mxCell id="SZjp6mkDGURUv7xX__tE-89" value="" style="curved=1;startArrow=none;endArrow=block;exitX=0.15;exitY=0.99;entryX=0.5;entryY=0;rounded=0;" edge="1" parent="SZjp6mkDGURUv7xX__tE-77" source="SZjp6mkDGURUv7xX__tE-81" target="SZjp6mkDGURUv7xX__tE-83">
          <mxGeometry relative="1" as="geometry">
            <Array as="points">
              <mxPoint x="622" y="314" />
            </Array>
          </mxGeometry>
        </mxCell>
        <mxCell id="SZjp6mkDGURUv7xX__tE-90" value="" style="curved=1;startArrow=none;endArrow=block;exitX=0.92;exitY=0.99;entryX=0.5;entryY=0;rounded=0;" edge="1" parent="SZjp6mkDGURUv7xX__tE-77" source="SZjp6mkDGURUv7xX__tE-81" target="SZjp6mkDGURUv7xX__tE-84">
          <mxGeometry relative="1" as="geometry">
            <Array as="points">
              <mxPoint x="932" y="314" />
            </Array>
          </mxGeometry>
        </mxCell>
        <mxCell id="SZjp6mkDGURUv7xX__tE-91" value="步骤4: 多组学整合机制解析" style="whiteSpace=wrap;strokeWidth=2;verticalAlign=top;" vertex="1" parent="1">
          <mxGeometry x="187" y="2732" width="980" height="435" as="geometry" />
        </mxCell>
        <mxCell id="SZjp6mkDGURUv7xX__tE-92" value="宏基因组-代谢组关联" style="whiteSpace=wrap;strokeWidth=2;" vertex="1" parent="SZjp6mkDGURUv7xX__tE-91">
          <mxGeometry x="271" y="46" width="210" height="54" as="geometry" />
        </mxCell>
        <mxCell id="SZjp6mkDGURUv7xX__tE-93" value="KEGG通路富集(菌群基因-代谢物关联)" style="whiteSpace=wrap;strokeWidth=2;" vertex="1" parent="SZjp6mkDGURUv7xX__tE-91">
          <mxGeometry x="43" y="175" width="260" height="78" as="geometry" />
        </mxCell>
        <mxCell id="SZjp6mkDGURUv7xX__tE-94" value="Spearman网络(|r|&gt;0.6，核心节点筛选)" style="whiteSpace=wrap;strokeWidth=2;" vertex="1" parent="SZjp6mkDGURUv7xX__tE-91">
          <mxGeometry x="353" y="175" width="260" height="78" as="geometry" />
        </mxCell>
        <mxCell id="SZjp6mkDGURUv7xX__tE-95" value="单细胞转录组" style="whiteSpace=wrap;strokeWidth=2;" vertex="1" parent="SZjp6mkDGURUv7xX__tE-91">
          <mxGeometry x="663" y="187" width="156" height="54" as="geometry" />
        </mxCell>
        <mxCell id="SZjp6mkDGURUv7xX__tE-96" value="10x Genomics建库→UMAP分群(EpCAM+/CD45+亚群)" style="whiteSpace=wrap;strokeWidth=2;" vertex="1" parent="SZjp6mkDGURUv7xX__tE-91">
          <mxGeometry x="172" y="328" width="260" height="78" as="geometry" />
        </mxCell>
        <mxCell id="SZjp6mkDGURUv7xX__tE-97" value="差异通路：MUC5AC分泌、NF-κB炎症、PPARγ脂代谢" style="whiteSpace=wrap;strokeWidth=2;" vertex="1" parent="SZjp6mkDGURUv7xX__tE-91">
          <mxGeometry x="503" y="328" width="260" height="78" as="geometry" />
        </mxCell>
        <mxCell id="SZjp6mkDGURUv7xX__tE-98" value="跨组学整合" style="whiteSpace=wrap;strokeWidth=2;" vertex="1" parent="SZjp6mkDGURUv7xX__tE-91">
          <mxGeometry x="813" y="340" width="140" height="54" as="geometry" />
        </mxCell>
        <mxCell id="SZjp6mkDGURUv7xX__tE-99" value="" style="curved=1;startArrow=none;endArrow=block;exitX=0.09;exitY=0.99;entryX=0.5;entryY=-0.01;rounded=0;" edge="1" parent="SZjp6mkDGURUv7xX__tE-91" source="SZjp6mkDGURUv7xX__tE-92" target="SZjp6mkDGURUv7xX__tE-93">
          <mxGeometry relative="1" as="geometry">
            <Array as="points">
              <mxPoint x="173" y="137" />
            </Array>
          </mxGeometry>
        </mxCell>
        <mxCell id="SZjp6mkDGURUv7xX__tE-100" value="" style="curved=1;startArrow=none;endArrow=block;exitX=0.71;exitY=0.99;entryX=0.5;entryY=-0.01;rounded=0;" edge="1" parent="SZjp6mkDGURUv7xX__tE-91" source="SZjp6mkDGURUv7xX__tE-92" target="SZjp6mkDGURUv7xX__tE-94">
          <mxGeometry relative="1" as="geometry">
            <Array as="points">
              <mxPoint x="483" y="137" />
            </Array>
          </mxGeometry>
        </mxCell>
        <mxCell id="SZjp6mkDGURUv7xX__tE-101" value="" style="curved=1;startArrow=none;endArrow=block;exitX=1;exitY=0.83;entryX=0.5;entryY=-0.01;rounded=0;" edge="1" parent="SZjp6mkDGURUv7xX__tE-91" source="SZjp6mkDGURUv7xX__tE-92" target="SZjp6mkDGURUv7xX__tE-95">
          <mxGeometry relative="1" as="geometry">
            <Array as="points">
              <mxPoint x="741" y="137" />
            </Array>
          </mxGeometry>
        </mxCell>
        <mxCell id="SZjp6mkDGURUv7xX__tE-102" value="" style="curved=1;startArrow=none;endArrow=block;exitX=0;exitY=0.74;entryX=0.5;entryY=-0.01;rounded=0;" edge="1" parent="SZjp6mkDGURUv7xX__tE-91" source="SZjp6mkDGURUv7xX__tE-95" target="SZjp6mkDGURUv7xX__tE-96">
          <mxGeometry relative="1" as="geometry">
            <Array as="points">
              <mxPoint x="302" y="290" />
            </Array>
          </mxGeometry>
        </mxCell>
        <mxCell id="SZjp6mkDGURUv7xX__tE-103" value="" style="curved=1;startArrow=none;endArrow=block;exitX=0.26;exitY=0.99;entryX=0.5;entryY=-0.01;rounded=0;" edge="1" parent="SZjp6mkDGURUv7xX__tE-91" source="SZjp6mkDGURUv7xX__tE-95" target="SZjp6mkDGURUv7xX__tE-97">
          <mxGeometry relative="1" as="geometry">
            <Array as="points">
              <mxPoint x="633" y="290" />
            </Array>
          </mxGeometry>
        </mxCell>
        <mxCell id="SZjp6mkDGURUv7xX__tE-104" value="" style="curved=1;startArrow=none;endArrow=block;exitX=0.82;exitY=0.99;entryX=0.5;entryY=-0.01;rounded=0;" edge="1" parent="SZjp6mkDGURUv7xX__tE-91" source="SZjp6mkDGURUv7xX__tE-95" target="SZjp6mkDGURUv7xX__tE-98">
          <mxGeometry relative="1" as="geometry">
            <Array as="points">
              <mxPoint x="883" y="290" />
            </Array>
          </mxGeometry>
        </mxCell>
        <mxCell id="SZjp6mkDGURUv7xX__tE-105" value="步骤5: 关键菌株与代谢物验证" style="whiteSpace=wrap;strokeWidth=2;verticalAlign=top;" vertex="1" parent="1">
          <mxGeometry x="232" y="3217" width="890" height="483" as="geometry" />
        </mxCell>
        <mxCell id="SZjp6mkDGURUv7xX__tE-106" value="致病菌验证" style="whiteSpace=wrap;strokeWidth=2;" vertex="1" parent="SZjp6mkDGURUv7xX__tE-105">
          <mxGeometry x="413" y="46" width="140" height="54" as="geometry" />
        </mxCell>
        <mxCell id="SZjp6mkDGURUv7xX__tE-107" value="Clostridium scindens分离→无菌小鼠定植(DCA生成+结石率)" style="whiteSpace=wrap;strokeWidth=2;" vertex="1" parent="SZjp6mkDGURUv7xX__tE-105">
          <mxGeometry x="43" y="175" width="260" height="102" as="geometry" />
        </mxCell>
        <mxCell id="SZjp6mkDGURUv7xX__tE-108" value="DCA回补实验：无菌小鼠灌胃(IL-6/CMC形成)" style="whiteSpace=wrap;strokeWidth=2;" vertex="1" parent="SZjp6mkDGURUv7xX__tE-105">
          <mxGeometry x="353" y="187" width="260" height="78" as="geometry" />
        </mxCell>
        <mxCell id="SZjp6mkDGURUv7xX__tE-109" value="益生菌干预" style="whiteSpace=wrap;strokeWidth=2;" vertex="1" parent="SZjp6mkDGURUv7xX__tE-105">
          <mxGeometry x="663" y="199" width="140" height="54" as="geometry" />
        </mxCell>
        <mxCell id="SZjp6mkDGURUv7xX__tE-110" value="Faecalibacterium prausnitzii灌胃→CSI指数↓+结石抑制" style="whiteSpace=wrap;strokeWidth=2;" vertex="1" parent="SZjp6mkDGURUv7xX__tE-105">
          <mxGeometry x="603" y="352" width="260" height="102" as="geometry" />
        </mxCell>
        <mxCell id="SZjp6mkDGURUv7xX__tE-111" value="" style="curved=1;startArrow=none;endArrow=block;exitX=0;exitY=0.76;entryX=0.5;entryY=0;rounded=0;" edge="1" parent="SZjp6mkDGURUv7xX__tE-105" source="SZjp6mkDGURUv7xX__tE-106" target="SZjp6mkDGURUv7xX__tE-107">
          <mxGeometry relative="1" as="geometry">
            <Array as="points">
              <mxPoint x="173" y="137" />
            </Array>
          </mxGeometry>
        </mxCell>
        <mxCell id="SZjp6mkDGURUv7xX__tE-112" value="" style="curved=1;startArrow=none;endArrow=block;exitX=0.5;exitY=0.99;entryX=0.5;entryY=-0.01;rounded=0;" edge="1" parent="SZjp6mkDGURUv7xX__tE-105" source="SZjp6mkDGURUv7xX__tE-106" target="SZjp6mkDGURUv7xX__tE-108">
          <mxGeometry relative="1" as="geometry">
            <Array as="points" />
          </mxGeometry>
        </mxCell>
        <mxCell id="SZjp6mkDGURUv7xX__tE-113" value="" style="curved=1;startArrow=none;endArrow=block;exitX=1;exitY=0.83;entryX=0.5;entryY=-0.01;rounded=0;" edge="1" parent="SZjp6mkDGURUv7xX__tE-105" source="SZjp6mkDGURUv7xX__tE-106" target="SZjp6mkDGURUv7xX__tE-109">
          <mxGeometry relative="1" as="geometry">
            <Array as="points">
              <mxPoint x="733" y="137" />
            </Array>
          </mxGeometry>
        </mxCell>
        <mxCell id="SZjp6mkDGURUv7xX__tE-114" value="" style="curved=1;startArrow=none;endArrow=block;exitX=0.5;exitY=0.99;entryX=0.5;entryY=0;rounded=0;" edge="1" parent="SZjp6mkDGURUv7xX__tE-105" source="SZjp6mkDGURUv7xX__tE-109" target="SZjp6mkDGURUv7xX__tE-110">
          <mxGeometry relative="1" as="geometry">
            <Array as="points" />
          </mxGeometry>
        </mxCell>
        <mxCell id="SZjp6mkDGURUv7xX__tE-115" value="" style="curved=1;startArrow=none;endArrow=block;exitX=0.5;exitY=1;entryX=0.5;entryY=0;rounded=0;" edge="1" parent="1" source="SZjp6mkDGURUv7xX__tE-53" target="SZjp6mkDGURUv7xX__tE-63">
          <mxGeometry relative="1" as="geometry">
            <Array as="points" />
          </mxGeometry>
        </mxCell>
        <mxCell id="SZjp6mkDGURUv7xX__tE-116" value="" style="curved=1;startArrow=none;endArrow=block;exitX=0.5;exitY=1;entryX=0.5;entryY=0;rounded=0;" edge="1" parent="1" source="SZjp6mkDGURUv7xX__tE-63" target="SZjp6mkDGURUv7xX__tE-77">
          <mxGeometry relative="1" as="geometry">
            <Array as="points" />
          </mxGeometry>
        </mxCell>
        <mxCell id="SZjp6mkDGURUv7xX__tE-117" value="" style="curved=1;startArrow=none;endArrow=block;exitX=0.5;exitY=1;entryX=0.5;entryY=0;rounded=0;" edge="1" parent="1" source="SZjp6mkDGURUv7xX__tE-77" target="SZjp6mkDGURUv7xX__tE-91">
          <mxGeometry relative="1" as="geometry">
            <Array as="points" />
          </mxGeometry>
        </mxCell>
        <mxCell id="SZjp6mkDGURUv7xX__tE-118" value="" style="curved=1;startArrow=none;endArrow=block;exitX=0.5;exitY=1;entryX=0.5;entryY=0;rounded=0;" edge="1" parent="1" source="SZjp6mkDGURUv7xX__tE-91" target="SZjp6mkDGURUv7xX__tE-105">
          <mxGeometry relative="1" as="geometry">
            <Array as="points" />
          </mxGeometry>
        </mxCell>
      </root>
    </mxGraphModel>
  </diagram>
</mxfile>
